Coordinates
version=1
nRows=36
nColumns=34
inDegrees=no

Units are S.I. units (second, meters, Newtons, ...)
If the header above contains a line with 'inDegrees', this indicates whether rotational values are in degrees (yes) or radians (no).

endheader
time	pelvis_tilt	pelvis_list	pelvis_rotation	pelvis_tx	pelvis_ty	pelvis_tz	hip_flexion_r	hip_adduction_r	hip_rotation_r	knee_angle_r	ankle_angle_r	subtalar_angle_r	mtp_angle_r	hip_flexion_l	hip_adduction_l	hip_rotation_l	knee_angle_l	ankle_angle_l	subtalar_angle_l	mtp_angle_l	lumbar_extension	lumbar_bending	lumbar_rotation	arm_flex_r	arm_add_r	arm_rot_r	elbow_flex_r	pro_sup_r	arm_flex_l	arm_add_l	arm_rot_l	elbow_flex_l	pro_sup_l
0.94	-0.0565538	0.0398872	-0.0585728	0.920936	0.964418	-0.260121	0.476096	-0.106145	-0.186094	0.734557	0.118273	-0.159563	0	0.0491343	0.0331797	-0.0466903	0.171627	0.241459	0.0604374	0	-0.145403	-0.266701	-0.0543702	0.0393361	-0.132721	0.155939	0.639102	2.09	0.0614842	-0.208245	-0.171415	0.537508	2.07126
0.95	-0.0584604	0.0347572	-0.058626	0.931904	0.964468	-0.262117	0.487094	-0.0981735	-0.192721	0.684007	0.127234	-0.117947	0	0.0321119	0.0317067	-0.0398759	0.160087	0.240113	0.0474526	0	-0.143114	-0.249571	-0.0557669	0.0351029	-0.134404	0.132229	0.634238	2.09	0.0680383	-0.207737	-0.148669	0.542792	2.0785
0.96	-0.0597307	0.0307771	-0.0587763	0.942985	0.96427	-0.264077	0.495824	-0.0913079	-0.198574	0.631984	0.135671	-0.0740713	0	0.0142782	0.0314573	-0.0337032	0.148494	0.239094	0.0345459	0	-0.141371	-0.233616	-0.0572667	0.0311637	-0.135825	0.108489	0.629045	2.09	0.0742757	-0.207767	-0.126144	0.549268	2.08501
0.97	-0.0602359	0.0279707	-0.059055	0.954167	0.963823	-0.266007	0.502224	-0.0855882	-0.203551	0.578844	0.143325	-0.0284339	0	-0.0046183	0.0325317	-0.0276632	0.136629	0.238167	0.0210741	0	-0.14039	-0.218905	-0.059022	0.0276629	-0.137105	0.0853122	0.623563	2.09	0.0800969	-0.208324	-0.104067	0.557189	2.09
0.98	-0.0598886	0.0262245	-0.0594556	0.965444	0.963126	-0.267904	0.506288	-0.0808848	-0.207534	0.524977	0.150032	0.0178498	0	-0.0246893	0.0348334	-0.0212011	0.124479	0.237189	0.00648885	0	-0.140309	-0.205353	-0.061079	0.0246434	-0.13835	0.0630782	0.617909	2.09	0.0854729	-0.209452	-0.0818274	0.566808	2.09
0.99	-0.0583953	0.0255865	-0.0597702	0.976844	0.962184	-0.269816	0.507955	-0.0781837	-0.213073	0.47152	0.158082	0.0683085	0	-0.0483308	0.0396675	0.00174863	0.10784	0.225471	-0.0355231	0	-0.141433	-0.192959	-0.0634487	0.0218324	-0.139626	0.0411801	0.612599	2.09	0.0905805	-0.211046	-0.0599114	0.57745	2.09
1	-0.0567187	0.0249091	-0.0604381	0.98827	0.960952	-0.271533	0.508046	-0.0732397	-0.211231	0.416988	0.161034	0.105246	0	-0.0690757	0.0424962	0.00313198	0.0978198	0.229272	-0.0414635	0	-0.142731	-0.180815	-0.065797	0.019734	-0.141098	0.0222182	0.606737	2.09	0.0950709	-0.213056	-0.0401409	0.589493	2.09
1.01	-0.0537516	0.0243572	-0.0608603	0.999798	0.959508	-0.273189	0.50575	-0.0694467	-0.211471	0.363878	0.166641	0.14463	0	-0.0917544	0.0457313	0.00937579	0.0870631	0.230764	-0.0546074	0	-0.145437	-0.168873	-0.0677632	0.0172762	-0.142472	0.00198159	0.602071	2.09	0.100135	-0.215582	-0.0188743	0.601078	2.09
1.02	-0.0503746	0.0236476	-0.0611674	1.01139	0.957804	-0.274721	0.502207	-0.0652503	-0.209562	0.312191	0.172286	0.177633	0	-0.114663	0.0487127	0.0176587	0.0770188	0.232015	-0.0704272	0	-0.148499	-0.156928	-0.069373	0.0147344	-0.143998	-0.0172988	0.597905	2.09	0.105419	-0.218361	0.00216712	0.61232	2.09
1.03	-0.0467768	0.0225795	-0.0613296	1.02302	0.955853	-0.276119	0.497759	-0.060454	-0.205254	0.262481	0.177886	0.20251	0	-0.137054	0.0510085	0.0250279	0.0687391	0.235104	-0.0838753	0	-0.151728	-0.144781	-0.0705011	0.0120238	-0.145678	-0.0356619	0.59431	2.09	0.111104	-0.221281	0.0230934	0.622782	2.09
1.04	-0.0426734	0.0210172	-0.0613363	1.0347	0.953711	-0.277394	0.492291	-0.0552452	-0.200069	0.215602	0.183762	0.220245	0	-0.159515	0.0525886	0.0330088	0.0616488	0.238552	-0.0976579	0	-0.155511	-0.132257	-0.0708791	0.00890323	-0.147372	-0.054396	0.591818	2.09	0.117622	-0.224291	0.0448984	0.631909	2.09
1.05	-0.0383852	0.0191606	-0.0612052	1.04642	0.951384	-0.27856	0.486514	-0.0497563	-0.193642	0.172541	0.189222	0.229297	0	-0.181505	0.0536208	0.0407301	0.0560715	0.242682	-0.110368	0	-0.159515	-0.119562	-0.0707242	0.00551798	-0.149101	-0.072867	0.59019	2.09	0.124686	-0.22721	0.0666035	0.640001	2.09
1.06	-0.0337539	0.0170946	-0.0609807	1.05819	0.948923	-0.279624	0.480363	-0.0438927	-0.183807	0.133891	0.192979	0.226216	0	-0.203413	0.0542304	0.0487237	0.0515813	0.246516	-0.123086	0	-0.163968	-0.106783	-0.0700608	0.00186748	-0.150738	-0.0915722	0.589551	2.09	0.132227	-0.229953	0.0880626	0.647144	2.09
1.07	-0.0292391	0.0152562	-0.0606692	1.07004	0.946331	-0.280609	0.47522	-0.0385678	-0.172742	0.10187	0.195994	0.215482	0	-0.224302	0.0547681	0.054368	0.049009	0.251749	-0.131151	0	-0.168344	-0.0943895	-0.0694298	-0.00168463	-0.152382	-0.10897	0.589183	2.09	0.139481	-0.232304	0.107251	0.654053	2.09
1.08	-0.0248703	0.0137591	-0.0603522	1.08198	0.943653	-0.281522	0.471972	-0.0343305	-0.164193	0.0786775	0.200179	0.204927	0	-0.244143	0.0553624	0.0573536	0.0483482	0.258193	-0.13405	0	-0.17262	-0.0825065	-0.0689271	-0.00503918	-0.153999	-0.124999	0.588879	2.09	0.146146	-0.234162	0.123638	0.660835	2.09
1.09	-0.0203051	0.0122903	-0.0601322	1.09405	0.940977	-0.282342	0.469893	-0.030657	-0.15572	0.0640702	0.20488	0.193196	0	-0.263553	0.0557206	0.0584031	0.0491893	0.264777	-0.133275	0	-0.177175	-0.0708282	-0.0682865	-0.00833326	-0.155421	-0.140763	0.588848	2.09	0.152266	-0.235493	0.137738	0.667191	2.09
1.1	-0.0152793	0.0103318	-0.0600158	1.10632	0.93838	-0.283014	0.466012	-0.0259049	-0.130779	0.0530719	0.202532	0.156395	0	-0.281653	0.0549122	0.0486585	0.0540558	0.277981	-0.113712	0	-0.182213	-0.0588956	-0.0674177	-0.011634	-0.15653	-0.156573	0.588999	2.09	0.157608	-0.236252	0.149359	0.673083	2.09
1.11	-0.0111866	0.00838119	-0.0601604	1.11877	0.935779	-0.283612	0.467387	-0.0232721	-0.13027	0.0569731	0.213089	0.160209	0	-0.298965	0.0543285	0.0474073	0.0585378	0.283129	-0.108953	0	-0.186057	-0.0470815	-0.0666826	-0.0146744	-0.15782	-0.1701	0.588475	2.09	0.161305	-0.236105	0.156749	0.678969	2.09
1.12	-0.00717598	0.00549057	-0.0605254	1.13147	0.93329	-0.284052	0.468987	-0.0200603	-0.131415	0.0676524	0.225164	0.168508	0	-0.31503	0.0524913	0.0427534	0.0657196	0.288942	-0.0989093	0	-0.189541	-0.0344762	-0.0655429	-0.017947	-0.158897	-0.183783	0.588081	2.09	0.163714	-0.23514	0.161403	0.6843	2.09
1.13	-0.00351337	0.00139969	-0.0610649	1.14447	0.930921	-0.284321	0.470814	-0.0160786	-0.137141	0.0842893	0.238923	0.184585	0	-0.329031	0.0489759	0.0319938	0.0766917	0.297214	-0.0793266	0	-0.192234	-0.0207921	-0.0640764	-0.0215149	-0.159805	-0.197442	0.587711	2.09	0.164527	-0.233293	0.163048	0.689152	2.09
1.14	-0.000681086	-0.0040166	-0.0616578	1.15777	0.928657	-0.284404	0.473356	-0.0115074	-0.151607	0.106255	0.254085	0.213123	0	-0.339204	0.043002	0.00765341	0.0939305	0.312717	-0.0380024	0	-0.193498	-0.00587758	-0.062503	-0.0253652	-0.160607	-0.210535	0.587067	2.09	0.163494	-0.230609	0.161661	0.693559	2.09
1.15	0.00170212	-0.0112513	-0.0622747	1.17142	0.92656	-0.284281	0.473147	-0.00402211	-0.155989	0.126475	0.260035	0.224019	0	-0.348913	0.0350551	-0.0110723	0.111595	0.321182	-0.00785858	0	-0.193652	0.0107917	-0.0608171	-0.0295246	-0.161385	-0.223035	0.586064	2.09	0.16056	-0.227068	0.157541	0.697411	2.09
1.16	0.00335772	-0.0204208	-0.0628847	1.18538	0.924644	-0.283928	0.471327	0.00618639	-0.157168	0.145503	0.257603	0.227578	0	-0.355995	0.023968	-0.0371872	0.133366	0.3309	0.0325626	0	-0.192485	0.0293354	-0.0590198	-0.0339085	-0.162057	-0.235183	0.584583	2.09	0.155919	-0.222782	0.151246	0.700511	2.09
1.17	0.00433911	-0.0315078	-0.0635408	1.19961	0.922942	-0.28334	0.467584	0.0195904	-0.152016	0.161636	0.244038	0.219469	0	-0.361452	0.0101361	-0.0638741	0.157264	0.336802	0.0717452	0	-0.190099	0.0497364	-0.0570957	-0.0384215	-0.162686	-0.246794	0.582449	2.09	0.149734	-0.217826	0.143309	0.702682	2.09
1.18	0.00468198	-0.0442881	-0.0642812	1.21409	0.92148	-0.282528	0.462416	0.0357776	-0.142261	0.175041	0.219966	0.202938	0	-0.365343	-0.00612842	-0.0899198	0.183083	0.337884	0.107715	0	-0.1866	0.0717561	-0.0550481	-0.0429891	-0.163303	-0.257807	0.579587	2.09	0.142223	-0.212302	0.134343	0.703766	2.09
1.19	0.00448852	-0.0581593	-0.0651393	1.22878	0.920276	-0.28154	0.456784	0.0533917	-0.132349	0.187373	0.189284	0.185477	0	-0.367894	-0.0236463	-0.111385	0.210175	0.3319	0.134321	0	-0.182138	0.0947674	-0.0529474	-0.0475399	-0.163953	-0.26816	0.57599	2.09	0.133604	-0.206322	0.12491	0.70369	2.09
1.2	0.00378048	-0.0728039	-0.0661484	1.24364	0.919332	-0.28039	0.45135	0.0718983	-0.122452	0.199832	0.155602	0.167454	0	-0.368018	-0.0427008	-0.132935	0.240518	0.321414	0.15889	0	-0.176822	0.118386	-0.0508131	-0.0519849	-0.164629	-0.277889	0.571703	2.09	0.124068	-0.200023	0.115379	0.702538	2.09
1.21	0.00240786	-0.0884075	-0.0674348	1.2586	0.918626	-0.279039	0.446305	0.0922633	-0.107108	0.212485	0.120198	0.139823	0	-0.363988	-0.0654139	-0.163972	0.277524	0.311131	0.195933	0	-0.170623	0.142685	-0.0485167	-0.0562342	-0.165295	-0.28707	0.566792	2.09	0.113733	-0.193546	0.105874	0.700557	2.09
1.22	0.001076	-0.10166	-0.0691442	1.2736	0.918201	-0.277747	0.445083	0.107405	-0.108414	0.234172	0.10096	0.139405	0	-0.358571	-0.0826079	-0.173386	0.314216	0.284982	0.196815	0	-0.16429	0.164242	-0.0463918	-0.0599176	-0.165947	-0.295653	0.561191	2.09	0.102957	-0.186984	0.0964731	0.697923	2.09
1.23	-0.00083906	-0.114221	-0.0712939	1.28856	0.91799	-0.276356	0.446205	0.121489	-0.11053	0.260611	0.091138	0.139601	0	-0.347721	-0.100925	-0.186614	0.358546	0.255785	0.200528	0	-0.157383	0.184598	-0.0442645	-0.0629275	-0.166462	-0.303843	0.55499	2.09	0.0916177	-0.180283	0.0862185	0.695129	2.09
1.24	-0.00369923	-0.125672	-0.0740228	1.30339	0.917938	-0.274862	0.449929	0.134052	-0.114199	0.291615	0.0921926	0.14223	0	-0.33058	-0.12022	-0.201886	0.410953	0.22221	0.203502	0	-0.14959	0.203203	-0.0421638	-0.065126	-0.166762	-0.311482	0.548167	2.09	0.079679	-0.173425	0.0744897	0.692518	2.09
1.25	-0.00687048	-0.135734	-0.0773464	1.31806	0.918091	-0.273264	0.454176	0.145499	-0.116123	0.324309	0.101626	0.143361	0	-0.30822	-0.139242	-0.214243	0.469716	0.180548	0.196357	0	-0.141779	0.219581	-0.0399591	-0.066312	-0.16676	-0.318346	0.540814	2.09	0.0673905	-0.166466	0.0611532	0.690258	2.09
1.26	-0.0105191	-0.144763	-0.0810783	1.3325	0.91842	-0.271537	0.457726	0.156736	-0.114974	0.35562	0.116072	0.14095	0	-0.280554	-0.15858	-0.223732	0.534165	0.130049	0.177587	0	-0.133847	0.234026	-0.037743	-0.0665207	-0.166388	-0.324312	0.533165	2.09	0.054824	-0.159335	0.0457946	0.688428	2.09
1.27	-0.0145859	-0.153045	-0.0849864	1.34669	0.91891	-0.269666	0.459412	0.168321	-0.110662	0.383036	0.132769	0.134827	0	-0.248268	-0.178568	-0.230417	0.602572	0.070503	0.146482	0	-0.125926	0.246763	-0.0355066	-0.065898	-0.165589	-0.329247	0.525582	2.09	0.0422572	-0.152104	0.0286771	0.686895	2.09
1.28	-0.0188797	-0.160649	-0.0887916	1.36061	0.919548	-0.267666	0.458469	0.180138	-0.104288	0.40518	0.150202	0.126602	0	-0.212521	-0.199038	-0.234176	0.672517	0.00308172	0.10352	0	-0.118239	0.257806	-0.033211	-0.0646676	-0.164325	-0.333049	0.51848	2.09	0.0301049	-0.144945	0.0104794	0.685357	2.09
1.29	-0.0230423	-0.167386	-0.0922112	1.37424	0.920335	-0.265575	0.454444	0.191531	-0.0972298	0.421724	0.167873	0.118432	0	-0.174741	-0.21925	-0.234786	0.74143	-0.0688928	0.0507524	0	-0.11114	0.266917	-0.0307908	-0.0630527	-0.162591	-0.335593	0.512221	2.09	0.018841	-0.138082	-0.00795518	0.683436	2.09
